<?xml version="1.0" encoding="UTF-8" standalone="no"?>
<!DOCTYPE svg PUBLIC "-//W3C//DTD SVG 1.1//EN"
 "http://www.w3.org/Graphics/SVG/1.1/DTD/svg11.dtd">
<!-- Generated by graphviz version 2.40.1 (20161225.0304)
 -->
<!-- Title: nodes Pages: 1 -->
<svg width="766pt" height="266pt"
 viewBox="0.00 0.00 766.11 265.60" xmlns="http://www.w3.org/2000/svg" xmlns:xlink="http://www.w3.org/1999/xlink">
<g id="graph0" class="graph" transform="scale(1 1) rotate(0) translate(4 261.6)">
<title>nodes</title>
<polygon fill="#ffffff" stroke="transparent" points="-4,4 -4,-261.6 762.105,-261.6 762.105,4 -4,4"/>
<!-- 0 -->
<g id="node1" class="node">
<title>0</title>
<polygon fill="none" stroke="#000000" points="511.3524,-257.6 341.7526,-257.6 341.7526,-221.6 511.3524,-221.6 511.3524,-257.6"/>
<text text-anchor="middle" x="426.5525" y="-235.4" font-family="Times,serif" font-size="14.00" fill="#000000"> hospital_per_area &lt;= 0.16 </text>
</g>
<!-- 1 -->
<g id="node2" class="node">
<title>1</title>
<polygon fill="none" stroke="#000000" points="387.3027,-185.6 239.8023,-185.6 239.8023,-149.6 387.3027,-149.6 387.3027,-185.6"/>
<text text-anchor="middle" x="313.5525" y="-163.4" font-family="Times,serif" font-size="14.00" fill="#000000"> BM_per_area &lt;= 0.03 </text>
</g>
<!-- 0&#45;&gt;1 -->
<g id="edge1" class="edge">
<title>0&#45;&gt;1</title>
<path fill="none" stroke="#000000" d="M398.0378,-221.4314C383.7183,-212.3074 366.1901,-201.139 350.8187,-191.3449"/>
<polygon fill="#000000" stroke="#000000" points="352.3724,-188.1847 342.058,-185.7628 348.6108,-194.0882 352.3724,-188.1847"/>
<text text-anchor="middle" x="347.4673" y="-205.9706" font-family="Times,serif" font-size="14.00" fill="#000000">True</text>
</g>
<!-- 2 -->
<g id="node3" class="node">
<title>2</title>
<polygon fill="none" stroke="#000000" points="524.2712,-185.6 444.8338,-185.6 444.8338,-149.6 524.2712,-149.6 524.2712,-185.6"/>
<text text-anchor="middle" x="484.5525" y="-163.4" font-family="Times,serif" font-size="14.00" fill="#000000"> age &lt;= 39 </text>
</g>
<!-- 0&#45;&gt;2 -->
<g id="edge2" class="edge">
<title>0&#45;&gt;2</title>
<path fill="none" stroke="#000000" d="M441.1883,-221.4314C447.8686,-213.1386 455.9093,-203.157 463.2429,-194.0533"/>
<polygon fill="#000000" stroke="#000000" points="466.1719,-195.9965 469.7196,-186.0133 460.7206,-191.6052 466.1719,-195.9965"/>
<text text-anchor="middle" x="472.3964" y="-206.6695" font-family="Times,serif" font-size="14.00" fill="#000000">False</text>
</g>
<!-- 3 -->
<g id="node4" class="node">
<title>3</title>
<polygon fill="none" stroke="#000000" points="207.6411,-113.6 65.4639,-113.6 65.4639,-77.6 207.6411,-77.6 207.6411,-113.6"/>
<text text-anchor="middle" x="136.5525" y="-91.4" font-family="Times,serif" font-size="14.00" fill="#000000"> PB_per_area &lt;= 0.01 </text>
</g>
<!-- 1&#45;&gt;3 -->
<g id="edge3" class="edge">
<title>1&#45;&gt;3</title>
<path fill="none" stroke="#000000" d="M268.8879,-149.4314C245.0048,-139.7162 215.4235,-127.6831 190.2897,-117.4592"/>
<polygon fill="#000000" stroke="#000000" points="191.4777,-114.164 180.8959,-113.638 188.84,-120.6481 191.4777,-114.164"/>
</g>
<!-- 4 -->
<g id="node5" class="node">
<title>4</title>
<polygon fill="none" stroke="#000000" points="384.6411,-113.6 242.4639,-113.6 242.4639,-77.6 384.6411,-77.6 384.6411,-113.6"/>
<text text-anchor="middle" x="313.5525" y="-91.4" font-family="Times,serif" font-size="14.00" fill="#000000"> PB_per_area &lt;= 0.04 </text>
</g>
<!-- 1&#45;&gt;4 -->
<g id="edge4" class="edge">
<title>1&#45;&gt;4</title>
<path fill="none" stroke="#000000" d="M313.5525,-149.4314C313.5525,-141.731 313.5525,-132.5743 313.5525,-124.0166"/>
<polygon fill="#000000" stroke="#000000" points="317.0526,-124.0132 313.5525,-114.0133 310.0526,-124.0133 317.0526,-124.0132"/>
</g>
<!-- 5 -->
<g id="node10" class="node">
<title>5</title>
<polygon fill="none" stroke="#000000" points="524.5521,-113.6 444.5529,-113.6 444.5529,-77.6 524.5521,-77.6 524.5521,-113.6"/>
<text text-anchor="middle" x="484.5525" y="-91.4" font-family="Times,serif" font-size="14.00" fill="#000000"> male &lt;= 0 </text>
</g>
<!-- 2&#45;&gt;5 -->
<g id="edge9" class="edge">
<title>2&#45;&gt;5</title>
<path fill="none" stroke="#000000" d="M484.5525,-149.4314C484.5525,-141.731 484.5525,-132.5743 484.5525,-124.0166"/>
<polygon fill="#000000" stroke="#000000" points="488.0526,-124.0132 484.5525,-114.0133 481.0526,-124.0133 488.0526,-124.0132"/>
</g>
<!-- 6 -->
<g id="node11" class="node">
<title>6</title>
<polygon fill="none" stroke="#000000" points="661.2712,-113.6 581.8338,-113.6 581.8338,-77.6 661.2712,-77.6 661.2712,-113.6"/>
<text text-anchor="middle" x="621.5525" y="-91.4" font-family="Times,serif" font-size="14.00" fill="#000000"> age &lt;= 49 </text>
</g>
<!-- 2&#45;&gt;6 -->
<g id="edge10" class="edge">
<title>2&#45;&gt;6</title>
<path fill="none" stroke="#000000" d="M519.1234,-149.4314C536.971,-140.0516 558.9299,-128.5112 577.9325,-118.5244"/>
<polygon fill="#000000" stroke="#000000" points="579.7689,-121.5132 586.9927,-113.7628 576.5124,-115.3168 579.7689,-121.5132"/>
</g>
<!-- 7 -->
<g id="node6" class="node">
<title>7</title>
<polygon fill="#c1b2ff" stroke="#c1b2ff" points="79.1576,-41.4019 -.0526,-41.4019 -.0526,-.1981 79.1576,-.1981 79.1576,-41.4019"/>
<text text-anchor="middle" x="39.5525" y="-25" font-family="Times,serif" font-size="14.00" fill="#000000"> leaf node</text>
<text text-anchor="middle" x="39.5525" y="-8.2" font-family="Times,serif" font-size="14.00" fill="#000000"> action = 4 </text>
</g>
<!-- 3&#45;&gt;7 -->
<g id="edge5" class="edge">
<title>3&#45;&gt;7</title>
<path fill="none" stroke="#000000" d="M113.0715,-77.493C101.5729,-68.6261 87.4907,-57.7668 74.7393,-47.9338"/>
<polygon fill="#000000" stroke="#000000" points="76.6488,-44.9865 66.5926,-41.6515 72.3742,-50.5298 76.6488,-44.9865"/>
</g>
<!-- 8 -->
<g id="node7" class="node">
<title>8</title>
<polygon fill="#c1b2ff" stroke="#c1b2ff" points="176.1576,-41.4019 96.9474,-41.4019 96.9474,-.1981 176.1576,-.1981 176.1576,-41.4019"/>
<text text-anchor="middle" x="136.5525" y="-25" font-family="Times,serif" font-size="14.00" fill="#000000"> leaf node</text>
<text text-anchor="middle" x="136.5525" y="-8.2" font-family="Times,serif" font-size="14.00" fill="#000000"> action = 3 </text>
</g>
<!-- 3&#45;&gt;8 -->
<g id="edge6" class="edge">
<title>3&#45;&gt;8</title>
<path fill="none" stroke="#000000" d="M136.5525,-77.493C136.5525,-69.8083 136.5525,-60.6272 136.5525,-51.9145"/>
<polygon fill="#000000" stroke="#000000" points="140.0526,-51.6515 136.5525,-41.6515 133.0526,-51.6515 140.0526,-51.6515"/>
</g>
<!-- 9 -->
<g id="node8" class="node">
<title>9</title>
<polygon fill="#c1b2ff" stroke="#c1b2ff" points="273.1576,-41.4019 193.9474,-41.4019 193.9474,-.1981 273.1576,-.1981 273.1576,-41.4019"/>
<text text-anchor="middle" x="233.5525" y="-25" font-family="Times,serif" font-size="14.00" fill="#000000"> leaf node</text>
<text text-anchor="middle" x="233.5525" y="-8.2" font-family="Times,serif" font-size="14.00" fill="#000000"> action = 2 </text>
</g>
<!-- 4&#45;&gt;9 -->
<g id="edge7" class="edge">
<title>4&#45;&gt;9</title>
<path fill="none" stroke="#000000" d="M294.1867,-77.493C284.884,-68.795 273.5308,-58.1797 263.1747,-48.4967"/>
<polygon fill="#000000" stroke="#000000" points="265.5485,-45.9246 255.8536,-41.6515 260.7677,-51.0378 265.5485,-45.9246"/>
</g>
<!-- 10 -->
<g id="node9" class="node">
<title>10</title>
<polygon fill="#c1b2ff" stroke="#c1b2ff" points="370.1576,-41.4019 290.9474,-41.4019 290.9474,-.1981 370.1576,-.1981 370.1576,-41.4019"/>
<text text-anchor="middle" x="330.5525" y="-25" font-family="Times,serif" font-size="14.00" fill="#000000"> leaf node</text>
<text text-anchor="middle" x="330.5525" y="-8.2" font-family="Times,serif" font-size="14.00" fill="#000000"> action = 4 </text>
</g>
<!-- 4&#45;&gt;10 -->
<g id="edge8" class="edge">
<title>4&#45;&gt;10</title>
<path fill="none" stroke="#000000" d="M317.6677,-77.493C319.4334,-69.7239 321.5468,-60.4252 323.5463,-51.6275"/>
<polygon fill="#000000" stroke="#000000" points="327.0102,-52.1785 325.8135,-41.6515 320.1843,-50.6271 327.0102,-52.1785"/>
</g>
<!-- 11 -->
<g id="node12" class="node">
<title>11</title>
<polygon fill="#c1b2ff" stroke="#c1b2ff" points="467.1576,-41.4019 387.9474,-41.4019 387.9474,-.1981 467.1576,-.1981 467.1576,-41.4019"/>
<text text-anchor="middle" x="427.5525" y="-25" font-family="Times,serif" font-size="14.00" fill="#000000"> leaf node</text>
<text text-anchor="middle" x="427.5525" y="-8.2" font-family="Times,serif" font-size="14.00" fill="#000000"> action = 3 </text>
</g>
<!-- 5&#45;&gt;11 -->
<g id="edge11" class="edge">
<title>5&#45;&gt;11</title>
<path fill="none" stroke="#000000" d="M470.7544,-77.493C464.3836,-69.1328 456.6631,-59.0013 449.5211,-49.6289"/>
<polygon fill="#000000" stroke="#000000" points="452.287,-47.484 443.442,-41.6515 446.7193,-51.7267 452.287,-47.484"/>
</g>
<!-- 12 -->
<g id="node13" class="node">
<title>12</title>
<polygon fill="#c1b2ff" stroke="#c1b2ff" points="564.1576,-41.4019 484.9474,-41.4019 484.9474,-.1981 564.1576,-.1981 564.1576,-41.4019"/>
<text text-anchor="middle" x="524.5525" y="-25" font-family="Times,serif" font-size="14.00" fill="#000000"> leaf node</text>
<text text-anchor="middle" x="524.5525" y="-8.2" font-family="Times,serif" font-size="14.00" fill="#000000"> action = 2 </text>
</g>
<!-- 5&#45;&gt;12 -->
<g id="edge12" class="edge">
<title>5&#45;&gt;12</title>
<path fill="none" stroke="#000000" d="M494.2354,-77.493C498.5706,-69.3861 503.7965,-59.6137 508.6793,-50.483"/>
<polygon fill="#000000" stroke="#000000" points="511.7727,-52.1203 513.402,-41.6515 505.5998,-48.8193 511.7727,-52.1203"/>
</g>
<!-- 13 -->
<g id="node14" class="node">
<title>13</title>
<polygon fill="#c1b2ff" stroke="#c1b2ff" points="661.1576,-41.4019 581.9474,-41.4019 581.9474,-.1981 661.1576,-.1981 661.1576,-41.4019"/>
<text text-anchor="middle" x="621.5525" y="-25" font-family="Times,serif" font-size="14.00" fill="#000000"> leaf node</text>
<text text-anchor="middle" x="621.5525" y="-8.2" font-family="Times,serif" font-size="14.00" fill="#000000"> action = 4 </text>
</g>
<!-- 6&#45;&gt;13 -->
<g id="edge13" class="edge">
<title>6&#45;&gt;13</title>
<path fill="none" stroke="#000000" d="M621.5525,-77.493C621.5525,-69.8083 621.5525,-60.6272 621.5525,-51.9145"/>
<polygon fill="#000000" stroke="#000000" points="625.0526,-51.6515 621.5525,-41.6515 618.0526,-51.6515 625.0526,-51.6515"/>
</g>
<!-- 14 -->
<g id="node15" class="node">
<title>14</title>
<polygon fill="#c1b2ff" stroke="#c1b2ff" points="758.1576,-41.4019 678.9474,-41.4019 678.9474,-.1981 758.1576,-.1981 758.1576,-41.4019"/>
<text text-anchor="middle" x="718.5525" y="-25" font-family="Times,serif" font-size="14.00" fill="#000000"> leaf node</text>
<text text-anchor="middle" x="718.5525" y="-8.2" font-family="Times,serif" font-size="14.00" fill="#000000"> action = 3 </text>
</g>
<!-- 6&#45;&gt;14 -->
<g id="edge14" class="edge">
<title>6&#45;&gt;14</title>
<path fill="none" stroke="#000000" d="M645.0335,-77.493C656.5321,-68.6261 670.6143,-57.7668 683.3657,-47.9338"/>
<polygon fill="#000000" stroke="#000000" points="685.7308,-50.5298 691.5124,-41.6515 681.4562,-44.9865 685.7308,-50.5298"/>
</g>
</g>
</svg>
