<?xml version="1.0" encoding="UTF-8" standalone="no"?>
<!DOCTYPE svg PUBLIC "-//W3C//DTD SVG 1.1//EN"
 "http://www.w3.org/Graphics/SVG/1.1/DTD/svg11.dtd">
<!-- Generated by graphviz version 2.40.1 (20161225.0304)
 -->
<!-- Title: nodes Pages: 1 -->
<svg width="394pt" height="194pt"
 viewBox="0.00 0.00 394.11 193.60" xmlns="http://www.w3.org/2000/svg" xmlns:xlink="http://www.w3.org/1999/xlink">
<g id="graph0" class="graph" transform="scale(1 1) rotate(0) translate(4 189.6)">
<title>nodes</title>
<polygon fill="#ffffff" stroke="transparent" points="-4,4 -4,-189.6 390.105,-189.6 390.105,4 -4,4"/>
<!-- 0 -->
<g id="node1" class="node">
<title>0</title>
<polygon fill="none" stroke="#000000" points="232.2712,-185.6 152.8338,-185.6 152.8338,-149.6 232.2712,-149.6 232.2712,-185.6"/>
<text text-anchor="middle" x="192.5525" y="-163.4" font-family="Times,serif" font-size="14.00" fill="#000000"> age &lt;= 35 </text>
</g>
<!-- 1 -->
<g id="node2" class="node">
<title>1</title>
<polygon fill="none" stroke="#000000" points="168.2712,-113.6 88.8338,-113.6 88.8338,-77.6 168.2712,-77.6 168.2712,-113.6"/>
<text text-anchor="middle" x="128.5525" y="-91.4" font-family="Times,serif" font-size="14.00" fill="#000000"> age &lt;= 28 </text>
</g>
<!-- 0&#45;&gt;1 -->
<g id="edge1" class="edge">
<title>0&#45;&gt;1</title>
<path fill="none" stroke="#000000" d="M176.4026,-149.4314C168.8808,-140.9694 159.796,-130.7489 151.5721,-121.4971"/>
<polygon fill="#000000" stroke="#000000" points="154.1795,-119.1621 144.9198,-114.0133 148.9476,-123.8127 154.1795,-119.1621"/>
<text text-anchor="middle" x="143.4518" y="-134.7701" font-family="Times,serif" font-size="14.00" fill="#000000">True</text>
</g>
<!-- 2 -->
<g id="node3" class="node">
<title>2</title>
<polygon fill="none" stroke="#000000" points="328.6411,-113.6 186.4639,-113.6 186.4639,-77.6 328.6411,-77.6 328.6411,-113.6"/>
<text text-anchor="middle" x="257.5525" y="-91.4" font-family="Times,serif" font-size="14.00" fill="#000000"> PB_per_area &lt;= 0.04 </text>
</g>
<!-- 0&#45;&gt;2 -->
<g id="edge2" class="edge">
<title>0&#45;&gt;2</title>
<path fill="none" stroke="#000000" d="M208.9547,-149.4314C216.594,-140.9694 225.8208,-130.7489 234.1732,-121.4971"/>
<polygon fill="#000000" stroke="#000000" points="236.8263,-123.7813 240.9294,-114.0133 231.6304,-119.0906 236.8263,-123.7813"/>
<text text-anchor="middle" x="242.2051" y="-134.7807" font-family="Times,serif" font-size="14.00" fill="#000000">False</text>
</g>
<!-- 3 -->
<g id="node4" class="node">
<title>3</title>
<polygon fill="#c1b2ff" stroke="#c1b2ff" points="79.1576,-41.4019 -.0526,-41.4019 -.0526,-.1981 79.1576,-.1981 79.1576,-41.4019"/>
<text text-anchor="middle" x="39.5525" y="-25" font-family="Times,serif" font-size="14.00" fill="#000000"> leaf node</text>
<text text-anchor="middle" x="39.5525" y="-8.2" font-family="Times,serif" font-size="14.00" fill="#000000"> action = 2 </text>
</g>
<!-- 1&#45;&gt;3 -->
<g id="edge3" class="edge">
<title>1&#45;&gt;3</title>
<path fill="none" stroke="#000000" d="M107.0081,-77.493C96.5583,-68.7105 83.7829,-57.9734 72.1719,-48.215"/>
<polygon fill="#000000" stroke="#000000" points="74.2697,-45.4061 64.3624,-41.6515 69.7659,-50.7649 74.2697,-45.4061"/>
</g>
<!-- 4 -->
<g id="node5" class="node">
<title>4</title>
<polygon fill="#c1b2ff" stroke="#c1b2ff" points="176.1576,-41.4019 96.9474,-41.4019 96.9474,-.1981 176.1576,-.1981 176.1576,-41.4019"/>
<text text-anchor="middle" x="136.5525" y="-25" font-family="Times,serif" font-size="14.00" fill="#000000"> leaf node</text>
<text text-anchor="middle" x="136.5525" y="-8.2" font-family="Times,serif" font-size="14.00" fill="#000000"> action = 1 </text>
</g>
<!-- 1&#45;&gt;4 -->
<g id="edge4" class="edge">
<title>1&#45;&gt;4</title>
<path fill="none" stroke="#000000" d="M130.4891,-77.493C131.32,-69.7239 132.3145,-60.4252 133.2554,-51.6275"/>
<polygon fill="#000000" stroke="#000000" points="136.739,-51.967 134.3224,-41.6515 129.7787,-51.2226 136.739,-51.967"/>
</g>
<!-- 5 -->
<g id="node6" class="node">
<title>5</title>
<polygon fill="#c1b2ff" stroke="#c1b2ff" points="289.1576,-41.4019 209.9474,-41.4019 209.9474,-.1981 289.1576,-.1981 289.1576,-41.4019"/>
<text text-anchor="middle" x="249.5525" y="-25" font-family="Times,serif" font-size="14.00" fill="#000000"> leaf node</text>
<text text-anchor="middle" x="249.5525" y="-8.2" font-family="Times,serif" font-size="14.00" fill="#000000"> action = 2 </text>
</g>
<!-- 2&#45;&gt;5 -->
<g id="edge5" class="edge">
<title>2&#45;&gt;5</title>
<path fill="none" stroke="#000000" d="M255.6159,-77.493C254.785,-69.7239 253.7905,-60.4252 252.8496,-51.6275"/>
<polygon fill="#000000" stroke="#000000" points="256.3263,-51.2226 251.7826,-41.6515 249.366,-51.967 256.3263,-51.2226"/>
</g>
<!-- 6 -->
<g id="node7" class="node">
<title>6</title>
<polygon fill="#c1b2ff" stroke="#c1b2ff" points="386.1576,-41.4019 306.9474,-41.4019 306.9474,-.1981 386.1576,-.1981 386.1576,-41.4019"/>
<text text-anchor="middle" x="346.5525" y="-25" font-family="Times,serif" font-size="14.00" fill="#000000"> leaf node</text>
<text text-anchor="middle" x="346.5525" y="-8.2" font-family="Times,serif" font-size="14.00" fill="#000000"> action = 4 </text>
</g>
<!-- 2&#45;&gt;6 -->
<g id="edge6" class="edge">
<title>2&#45;&gt;6</title>
<path fill="none" stroke="#000000" d="M279.0969,-77.493C289.5467,-68.7105 302.3221,-57.9734 313.9331,-48.215"/>
<polygon fill="#000000" stroke="#000000" points="316.3391,-50.7649 321.7426,-41.6515 311.8353,-45.4061 316.3391,-50.7649"/>
</g>
</g>
</svg>
